<mxfile host="Electron" modified="2023-06-07T02:42:22.355Z" agent="Mozilla/5.0 (Windows NT 10.0; Win64; x64) AppleWebKit/537.36 (KHTML, like Gecko) draw.io/21.2.8 Chrome/112.0.5615.165 Electron/24.2.0 Safari/537.36" etag="WcfRUZ2HNSKZiXmcvwKi" version="21.2.8" type="device" pages="2">
  <diagram id="HLT1zT4tGpi2VpR7Z76A" name="网络模块思维导图">
    <mxGraphModel dx="2839" dy="688" grid="1" gridSize="10" guides="1" tooltips="1" connect="1" arrows="1" fold="1" page="1" pageScale="1" pageWidth="827" pageHeight="1169" math="0" shadow="0">
      <root>
        <mxCell id="0" />
        <mxCell id="1" parent="0" />
        <mxCell id="BwmPzmblsaP-TvDC1Gwi-7" style="edgeStyle=entityRelationEdgeStyle;rounded=0;orthogonalLoop=1;jettySize=auto;html=1;startArrow=none;endArrow=none;segment=10;curved=1;sourcePerimeterSpacing=0;targetPerimeterSpacing=0;exitX=1;exitY=1;exitDx=0;exitDy=0;entryX=0;entryY=1;entryDx=0;entryDy=0;strokeColor=#00CC66;" edge="1" parent="1" source="BwmPzmblsaP-TvDC1Gwi-2" target="BwmPzmblsaP-TvDC1Gwi-6">
          <mxGeometry relative="1" as="geometry" />
        </mxCell>
        <mxCell id="BwmPzmblsaP-TvDC1Gwi-2" value="网络模块" style="whiteSpace=wrap;html=1;shape=partialRectangle;top=0;left=0;bottom=1;right=0;points=[[0,1],[1,1]];align=center;verticalAlign=bottom;routingCenterY=0.5;snapToPoint=1;recursiveResize=0;autosize=1;treeFolding=1;treeMoving=1;newEdgeStyle={&quot;edgeStyle&quot;:&quot;entityRelationEdgeStyle&quot;,&quot;startArrow&quot;:&quot;none&quot;,&quot;endArrow&quot;:&quot;none&quot;,&quot;segment&quot;:10,&quot;curved&quot;:1,&quot;sourcePerimeterSpacing&quot;:0,&quot;targetPerimeterSpacing&quot;:0};strokeColor=#99FFCC;" vertex="1" parent="1">
          <mxGeometry x="-250" y="610" width="90" height="30" as="geometry" />
        </mxCell>
        <mxCell id="BwmPzmblsaP-TvDC1Gwi-4" value="RPC" style="whiteSpace=wrap;html=1;shape=partialRectangle;top=0;left=0;bottom=1;right=0;points=[[0,1],[1,1]];fillColor=none;align=center;verticalAlign=bottom;routingCenterY=0.5;snapToPoint=1;recursiveResize=0;autosize=1;treeFolding=1;treeMoving=1;newEdgeStyle={&quot;edgeStyle&quot;:&quot;entityRelationEdgeStyle&quot;,&quot;startArrow&quot;:&quot;none&quot;,&quot;endArrow&quot;:&quot;none&quot;,&quot;segment&quot;:10,&quot;curved&quot;:1,&quot;sourcePerimeterSpacing&quot;:0,&quot;targetPerimeterSpacing&quot;:0};strokeColor=#00FF80;" vertex="1" parent="1">
          <mxGeometry x="-115" y="590" width="70" height="30" as="geometry" />
        </mxCell>
        <mxCell id="BwmPzmblsaP-TvDC1Gwi-5" value="" style="edgeStyle=entityRelationEdgeStyle;startArrow=none;endArrow=none;segment=10;curved=1;sourcePerimeterSpacing=0;targetPerimeterSpacing=0;rounded=0;strokeColor=#00FFFF;" edge="1" target="BwmPzmblsaP-TvDC1Gwi-4" parent="1">
          <mxGeometry relative="1" as="geometry">
            <mxPoint x="-160" y="640" as="sourcePoint" />
          </mxGeometry>
        </mxCell>
        <mxCell id="BwmPzmblsaP-TvDC1Gwi-6" value="属性同步" style="whiteSpace=wrap;html=1;shape=partialRectangle;top=0;left=0;bottom=1;right=0;points=[[0,1],[1,1]];fillColor=none;align=center;verticalAlign=bottom;routingCenterY=0.5;snapToPoint=1;recursiveResize=0;autosize=1;treeFolding=1;treeMoving=1;newEdgeStyle={&quot;edgeStyle&quot;:&quot;entityRelationEdgeStyle&quot;,&quot;startArrow&quot;:&quot;none&quot;,&quot;endArrow&quot;:&quot;none&quot;,&quot;segment&quot;:10,&quot;curved&quot;:1,&quot;sourcePerimeterSpacing&quot;:0,&quot;targetPerimeterSpacing&quot;:0};strokeColor=#00FF80;" vertex="1" parent="1">
          <mxGeometry x="-125" y="640" width="90" height="30" as="geometry" />
        </mxCell>
        <mxCell id="BwmPzmblsaP-TvDC1Gwi-8" value="ChangeList" style="whiteSpace=wrap;html=1;shape=partialRectangle;top=0;left=0;bottom=1;right=0;points=[[0,1],[1,1]];fillColor=none;align=center;verticalAlign=bottom;routingCenterY=0.5;snapToPoint=1;recursiveResize=0;autosize=1;treeFolding=1;treeMoving=1;newEdgeStyle={&quot;edgeStyle&quot;:&quot;entityRelationEdgeStyle&quot;,&quot;startArrow&quot;:&quot;none&quot;,&quot;endArrow&quot;:&quot;none&quot;,&quot;segment&quot;:10,&quot;curved&quot;:1,&quot;sourcePerimeterSpacing&quot;:0,&quot;targetPerimeterSpacing&quot;:0};strokeColor=#00FF80;" vertex="1" parent="1">
          <mxGeometry y="640" width="100" height="30" as="geometry" />
        </mxCell>
        <mxCell id="BwmPzmblsaP-TvDC1Gwi-9" value="指针/引用怎么同步" style="whiteSpace=wrap;html=1;shape=partialRectangle;top=0;left=0;bottom=1;right=0;points=[[0,1],[1,1]];fillColor=none;align=center;verticalAlign=bottom;routingCenterY=0.5;snapToPoint=1;recursiveResize=0;autosize=1;treeFolding=1;treeMoving=1;newEdgeStyle={&quot;edgeStyle&quot;:&quot;entityRelationEdgeStyle&quot;,&quot;startArrow&quot;:&quot;none&quot;,&quot;endArrow&quot;:&quot;none&quot;,&quot;segment&quot;:10,&quot;curved&quot;:1,&quot;sourcePerimeterSpacing&quot;:0,&quot;targetPerimeterSpacing&quot;:0};strokeColor=#00FF80;" vertex="1" parent="1">
          <mxGeometry x="-155" y="710" width="140" height="30" as="geometry" />
        </mxCell>
        <mxCell id="BwmPzmblsaP-TvDC1Gwi-10" value="UObject怎么同步" style="whiteSpace=wrap;html=1;shape=partialRectangle;top=0;left=0;bottom=1;right=0;points=[[0,1],[1,1]];fillColor=none;align=center;verticalAlign=bottom;routingCenterY=0.5;snapToPoint=1;recursiveResize=0;autosize=1;treeFolding=1;treeMoving=1;newEdgeStyle={&quot;edgeStyle&quot;:&quot;entityRelationEdgeStyle&quot;,&quot;startArrow&quot;:&quot;none&quot;,&quot;endArrow&quot;:&quot;none&quot;,&quot;segment&quot;:10,&quot;curved&quot;:1,&quot;sourcePerimeterSpacing&quot;:0,&quot;targetPerimeterSpacing&quot;:0};strokeColor=#00FF80;" vertex="1" parent="1">
          <mxGeometry x="-150" y="770" width="130" height="30" as="geometry" />
        </mxCell>
        <mxCell id="BwmPzmblsaP-TvDC1Gwi-11" value="RepLayout" style="whiteSpace=wrap;html=1;shape=partialRectangle;top=0;left=0;bottom=1;right=0;points=[[0,1],[1,1]];fillColor=none;align=center;verticalAlign=bottom;routingCenterY=0.5;snapToPoint=1;recursiveResize=0;autosize=1;treeFolding=1;treeMoving=1;newEdgeStyle={&quot;edgeStyle&quot;:&quot;entityRelationEdgeStyle&quot;,&quot;startArrow&quot;:&quot;none&quot;,&quot;endArrow&quot;:&quot;none&quot;,&quot;segment&quot;:10,&quot;curved&quot;:1,&quot;sourcePerimeterSpacing&quot;:0,&quot;targetPerimeterSpacing&quot;:0};strokeColor=#00FF80;" vertex="1" parent="1">
          <mxGeometry x="-135" y="830" width="100" height="30" as="geometry" />
        </mxCell>
        <mxCell id="BwmPzmblsaP-TvDC1Gwi-12" value="CustomDeltaSerialization" style="whiteSpace=wrap;html=1;shape=partialRectangle;top=0;left=0;bottom=1;right=0;points=[[0,1],[1,1]];fillColor=none;align=center;verticalAlign=bottom;routingCenterY=0.5;snapToPoint=1;recursiveResize=0;autosize=1;treeFolding=1;treeMoving=1;newEdgeStyle={&quot;edgeStyle&quot;:&quot;entityRelationEdgeStyle&quot;,&quot;startArrow&quot;:&quot;none&quot;,&quot;endArrow&quot;:&quot;none&quot;,&quot;segment&quot;:10,&quot;curved&quot;:1,&quot;sourcePerimeterSpacing&quot;:0,&quot;targetPerimeterSpacing&quot;:0};strokeColor=#00FF80;" vertex="1" parent="1">
          <mxGeometry x="-175" y="890" width="180" height="30" as="geometry" />
        </mxCell>
        <mxCell id="BwmPzmblsaP-TvDC1Gwi-13" value="Bunch" style="whiteSpace=wrap;html=1;shape=partialRectangle;top=0;left=0;bottom=1;right=0;points=[[0,1],[1,1]];fillColor=none;align=center;verticalAlign=bottom;routingCenterY=0.5;snapToPoint=1;recursiveResize=0;autosize=1;treeFolding=1;treeMoving=1;newEdgeStyle={&quot;edgeStyle&quot;:&quot;entityRelationEdgeStyle&quot;,&quot;startArrow&quot;:&quot;none&quot;,&quot;endArrow&quot;:&quot;none&quot;,&quot;segment&quot;:10,&quot;curved&quot;:1,&quot;sourcePerimeterSpacing&quot;:0,&quot;targetPerimeterSpacing&quot;:0};strokeColor=#00FF80;" vertex="1" parent="1">
          <mxGeometry x="-740" y="1150" width="70" height="30" as="geometry" />
        </mxCell>
        <mxCell id="BwmPzmblsaP-TvDC1Gwi-17" style="edgeStyle=entityRelationEdgeStyle;rounded=0;orthogonalLoop=1;jettySize=auto;html=1;startArrow=none;endArrow=none;segment=10;curved=1;sourcePerimeterSpacing=0;targetPerimeterSpacing=0;exitX=1;exitY=1;exitDx=0;exitDy=0;entryX=0;entryY=1;entryDx=0;entryDy=0;strokeColor=#FFFF00;" edge="1" parent="1" source="BwmPzmblsaP-TvDC1Gwi-14" target="BwmPzmblsaP-TvDC1Gwi-15">
          <mxGeometry relative="1" as="geometry" />
        </mxCell>
        <mxCell id="BwmPzmblsaP-TvDC1Gwi-18" style="edgeStyle=entityRelationEdgeStyle;rounded=0;orthogonalLoop=1;jettySize=auto;html=1;startArrow=none;endArrow=none;segment=10;curved=1;sourcePerimeterSpacing=0;targetPerimeterSpacing=0;exitX=1;exitY=1;exitDx=0;exitDy=0;entryX=0;entryY=1;entryDx=0;entryDy=0;strokeColor=#80FF00;" edge="1" parent="1" source="BwmPzmblsaP-TvDC1Gwi-14" target="BwmPzmblsaP-TvDC1Gwi-16">
          <mxGeometry relative="1" as="geometry" />
        </mxCell>
        <mxCell id="BwmPzmblsaP-TvDC1Gwi-14" value="RepState" style="whiteSpace=wrap;html=1;shape=partialRectangle;top=0;left=0;bottom=1;right=0;points=[[0,1],[1,1]];fillColor=none;align=center;verticalAlign=bottom;routingCenterY=0.5;snapToPoint=1;recursiveResize=0;autosize=1;treeFolding=1;treeMoving=1;newEdgeStyle={&quot;edgeStyle&quot;:&quot;entityRelationEdgeStyle&quot;,&quot;startArrow&quot;:&quot;none&quot;,&quot;endArrow&quot;:&quot;none&quot;,&quot;segment&quot;:10,&quot;curved&quot;:1,&quot;sourcePerimeterSpacing&quot;:0,&quot;targetPerimeterSpacing&quot;:0};strokeColor=#00FF80;" vertex="1" parent="1">
          <mxGeometry x="-140" y="1000" width="90" height="30" as="geometry" />
        </mxCell>
        <mxCell id="BwmPzmblsaP-TvDC1Gwi-15" value="SendingRepState" style="whiteSpace=wrap;html=1;shape=partialRectangle;top=0;left=0;bottom=1;right=0;points=[[0,1],[1,1]];fillColor=none;align=center;verticalAlign=bottom;routingCenterY=0.5;snapToPoint=1;recursiveResize=0;autosize=1;treeFolding=1;treeMoving=1;newEdgeStyle={&quot;edgeStyle&quot;:&quot;entityRelationEdgeStyle&quot;,&quot;startArrow&quot;:&quot;none&quot;,&quot;endArrow&quot;:&quot;none&quot;,&quot;segment&quot;:10,&quot;curved&quot;:1,&quot;sourcePerimeterSpacing&quot;:0,&quot;targetPerimeterSpacing&quot;:0};strokeColor=#00FF80;" vertex="1" parent="1">
          <mxGeometry x="-15" y="980" width="130" height="30" as="geometry" />
        </mxCell>
        <mxCell id="BwmPzmblsaP-TvDC1Gwi-16" value="ReceiveRepState" style="whiteSpace=wrap;html=1;shape=partialRectangle;top=0;left=0;bottom=1;right=0;points=[[0,1],[1,1]];fillColor=none;align=center;verticalAlign=bottom;routingCenterY=0.5;snapToPoint=1;recursiveResize=0;autosize=1;treeFolding=1;treeMoving=1;newEdgeStyle={&quot;edgeStyle&quot;:&quot;entityRelationEdgeStyle&quot;,&quot;startArrow&quot;:&quot;none&quot;,&quot;endArrow&quot;:&quot;none&quot;,&quot;segment&quot;:10,&quot;curved&quot;:1,&quot;sourcePerimeterSpacing&quot;:0,&quot;targetPerimeterSpacing&quot;:0};strokeColor=#00FF80;" vertex="1" parent="1">
          <mxGeometry x="-15" y="1020" width="130" height="30" as="geometry" />
        </mxCell>
        <mxCell id="BwmPzmblsaP-TvDC1Gwi-19" value="SharedSerialization" style="whiteSpace=wrap;html=1;shape=partialRectangle;top=0;left=0;bottom=1;right=0;points=[[0,1],[1,1]];fillColor=none;align=center;verticalAlign=bottom;routingCenterY=0.5;snapToPoint=1;recursiveResize=0;autosize=1;treeFolding=1;treeMoving=1;newEdgeStyle={&quot;edgeStyle&quot;:&quot;entityRelationEdgeStyle&quot;,&quot;startArrow&quot;:&quot;none&quot;,&quot;endArrow&quot;:&quot;none&quot;,&quot;segment&quot;:10,&quot;curved&quot;:1,&quot;sourcePerimeterSpacing&quot;:0,&quot;targetPerimeterSpacing&quot;:0};strokeColor=#00FF80;" vertex="1" parent="1">
          <mxGeometry x="-165" y="1070" width="140" height="30" as="geometry" />
        </mxCell>
        <mxCell id="BwmPzmblsaP-TvDC1Gwi-20" value="PushModel" style="whiteSpace=wrap;html=1;shape=partialRectangle;top=0;left=0;bottom=1;right=0;points=[[0,1],[1,1]];fillColor=none;align=center;verticalAlign=bottom;routingCenterY=0.5;snapToPoint=1;recursiveResize=0;autosize=1;treeFolding=1;treeMoving=1;newEdgeStyle={&quot;edgeStyle&quot;:&quot;entityRelationEdgeStyle&quot;,&quot;startArrow&quot;:&quot;none&quot;,&quot;endArrow&quot;:&quot;none&quot;,&quot;segment&quot;:10,&quot;curved&quot;:1,&quot;sourcePerimeterSpacing&quot;:0,&quot;targetPerimeterSpacing&quot;:0};strokeColor=#00FF80;" vertex="1" parent="1">
          <mxGeometry x="-145" y="1139" width="100" height="30" as="geometry" />
        </mxCell>
        <mxCell id="BwmPzmblsaP-TvDC1Gwi-21" value="ReplicatedGraph" style="whiteSpace=wrap;html=1;shape=partialRectangle;top=0;left=0;bottom=1;right=0;points=[[0,1],[1,1]];fillColor=none;align=center;verticalAlign=bottom;routingCenterY=0.5;snapToPoint=1;recursiveResize=0;autosize=1;treeFolding=1;treeMoving=1;newEdgeStyle={&quot;edgeStyle&quot;:&quot;entityRelationEdgeStyle&quot;,&quot;startArrow&quot;:&quot;none&quot;,&quot;endArrow&quot;:&quot;none&quot;,&quot;segment&quot;:10,&quot;curved&quot;:1,&quot;sourcePerimeterSpacing&quot;:0,&quot;targetPerimeterSpacing&quot;:0};strokeColor=#00FF80;" vertex="1" parent="1">
          <mxGeometry x="-155" y="1220" width="130" height="30" as="geometry" />
        </mxCell>
        <mxCell id="BwmPzmblsaP-TvDC1Gwi-22" value="Dormant" style="whiteSpace=wrap;html=1;shape=partialRectangle;top=0;left=0;bottom=1;right=0;points=[[0,1],[1,1]];fillColor=none;align=center;verticalAlign=bottom;routingCenterY=0.5;snapToPoint=1;recursiveResize=0;autosize=1;treeFolding=1;treeMoving=1;newEdgeStyle={&quot;edgeStyle&quot;:&quot;entityRelationEdgeStyle&quot;,&quot;startArrow&quot;:&quot;none&quot;,&quot;endArrow&quot;:&quot;none&quot;,&quot;segment&quot;:10,&quot;curved&quot;:1,&quot;sourcePerimeterSpacing&quot;:0,&quot;targetPerimeterSpacing&quot;:0};strokeColor=#00FF80;" vertex="1" parent="1">
          <mxGeometry x="-917" y="620" width="90" height="30" as="geometry" />
        </mxCell>
        <mxCell id="BwmPzmblsaP-TvDC1Gwi-23" value="FObjectReplicator" style="whiteSpace=wrap;html=1;shape=partialRectangle;top=0;left=0;bottom=1;right=0;points=[[0,1],[1,1]];fillColor=none;align=center;verticalAlign=bottom;routingCenterY=0.5;snapToPoint=1;recursiveResize=0;autosize=1;treeFolding=1;treeMoving=1;newEdgeStyle={&quot;edgeStyle&quot;:&quot;entityRelationEdgeStyle&quot;,&quot;startArrow&quot;:&quot;none&quot;,&quot;endArrow&quot;:&quot;none&quot;,&quot;segment&quot;:10,&quot;curved&quot;:1,&quot;sourcePerimeterSpacing&quot;:0,&quot;targetPerimeterSpacing&quot;:0};strokeColor=#00FF80;" vertex="1" parent="1">
          <mxGeometry x="-160" y="1300" width="140" height="30" as="geometry" />
        </mxCell>
        <mxCell id="BwmPzmblsaP-TvDC1Gwi-24" value="ConditionReplication" style="whiteSpace=wrap;html=1;shape=partialRectangle;top=0;left=0;bottom=1;right=0;points=[[0,1],[1,1]];fillColor=none;align=center;verticalAlign=bottom;routingCenterY=0.5;snapToPoint=1;recursiveResize=0;autosize=1;treeFolding=1;treeMoving=1;newEdgeStyle={&quot;edgeStyle&quot;:&quot;entityRelationEdgeStyle&quot;,&quot;startArrow&quot;:&quot;none&quot;,&quot;endArrow&quot;:&quot;none&quot;,&quot;segment&quot;:10,&quot;curved&quot;:1,&quot;sourcePerimeterSpacing&quot;:0,&quot;targetPerimeterSpacing&quot;:0};strokeColor=#00FF80;" vertex="1" parent="1">
          <mxGeometry x="-155" y="1400" width="150" height="30" as="geometry" />
        </mxCell>
        <mxCell id="BwmPzmblsaP-TvDC1Gwi-25" value="Package" style="whiteSpace=wrap;html=1;shape=partialRectangle;top=0;left=0;bottom=1;right=0;points=[[0,1],[1,1]];fillColor=none;align=center;verticalAlign=bottom;routingCenterY=0.5;snapToPoint=1;recursiveResize=0;autosize=1;treeFolding=1;treeMoving=1;newEdgeStyle={&quot;edgeStyle&quot;:&quot;entityRelationEdgeStyle&quot;,&quot;startArrow&quot;:&quot;none&quot;,&quot;endArrow&quot;:&quot;none&quot;,&quot;segment&quot;:10,&quot;curved&quot;:1,&quot;sourcePerimeterSpacing&quot;:0,&quot;targetPerimeterSpacing&quot;:0};strokeColor=#00FF80;" vertex="1" parent="1">
          <mxGeometry x="-917" y="1250" width="90" height="30" as="geometry" />
        </mxCell>
        <mxCell id="BwmPzmblsaP-TvDC1Gwi-26" value="ControlChannel" style="whiteSpace=wrap;html=1;shape=partialRectangle;top=0;left=0;bottom=1;right=0;points=[[0,1],[1,1]];fillColor=none;align=center;verticalAlign=bottom;routingCenterY=0.5;snapToPoint=1;recursiveResize=0;autosize=1;treeFolding=1;treeMoving=1;newEdgeStyle={&quot;edgeStyle&quot;:&quot;entityRelationEdgeStyle&quot;,&quot;startArrow&quot;:&quot;none&quot;,&quot;endArrow&quot;:&quot;none&quot;,&quot;segment&quot;:10,&quot;curved&quot;:1,&quot;sourcePerimeterSpacing&quot;:0,&quot;targetPerimeterSpacing&quot;:0};strokeColor=#00FF80;" vertex="1" parent="1">
          <mxGeometry x="-805" y="870" width="120" height="30" as="geometry" />
        </mxCell>
        <mxCell id="BwmPzmblsaP-TvDC1Gwi-30" style="edgeStyle=entityRelationEdgeStyle;rounded=0;orthogonalLoop=1;jettySize=auto;html=1;startArrow=none;endArrow=none;segment=10;curved=1;sourcePerimeterSpacing=0;targetPerimeterSpacing=0;exitX=1;exitY=1;exitDx=0;exitDy=0;entryX=0;entryY=1;entryDx=0;entryDy=0;" edge="1" parent="1" source="BwmPzmblsaP-TvDC1Gwi-27" target="BwmPzmblsaP-TvDC1Gwi-28">
          <mxGeometry relative="1" as="geometry" />
        </mxCell>
        <mxCell id="BwmPzmblsaP-TvDC1Gwi-31" style="edgeStyle=entityRelationEdgeStyle;rounded=0;orthogonalLoop=1;jettySize=auto;html=1;startArrow=none;endArrow=none;segment=10;curved=1;sourcePerimeterSpacing=0;targetPerimeterSpacing=0;exitX=1;exitY=1;exitDx=0;exitDy=0;entryX=0;entryY=1;entryDx=0;entryDy=0;" edge="1" parent="1" source="BwmPzmblsaP-TvDC1Gwi-27" target="BwmPzmblsaP-TvDC1Gwi-29">
          <mxGeometry relative="1" as="geometry" />
        </mxCell>
        <mxCell id="BwmPzmblsaP-TvDC1Gwi-27" value="ContentBlock" style="whiteSpace=wrap;html=1;shape=partialRectangle;top=0;left=0;bottom=1;right=0;points=[[0,1],[1,1]];fillColor=none;align=center;verticalAlign=bottom;routingCenterY=0.5;snapToPoint=1;recursiveResize=0;autosize=1;treeFolding=1;treeMoving=1;newEdgeStyle={&quot;edgeStyle&quot;:&quot;entityRelationEdgeStyle&quot;,&quot;startArrow&quot;:&quot;none&quot;,&quot;endArrow&quot;:&quot;none&quot;,&quot;segment&quot;:10,&quot;curved&quot;:1,&quot;sourcePerimeterSpacing&quot;:0,&quot;targetPerimeterSpacing&quot;:0};strokeColor=#00FF80;" vertex="1" parent="1">
          <mxGeometry x="-580" y="1290" width="80" height="30" as="geometry" />
        </mxCell>
        <mxCell id="BwmPzmblsaP-TvDC1Gwi-28" value="ContentBlockHeader" style="whiteSpace=wrap;html=1;shape=partialRectangle;top=0;left=0;bottom=1;right=0;points=[[0,1],[1,1]];fillColor=none;align=center;verticalAlign=bottom;routingCenterY=0.5;snapToPoint=1;recursiveResize=0;autosize=1;treeFolding=1;treeMoving=1;newEdgeStyle={&quot;edgeStyle&quot;:&quot;entityRelationEdgeStyle&quot;,&quot;startArrow&quot;:&quot;none&quot;,&quot;endArrow&quot;:&quot;none&quot;,&quot;segment&quot;:10,&quot;curved&quot;:1,&quot;sourcePerimeterSpacing&quot;:0,&quot;targetPerimeterSpacing&quot;:0};strokeColor=#00FF80;" vertex="1" parent="1">
          <mxGeometry x="-450" y="1270" width="150" height="30" as="geometry" />
        </mxCell>
        <mxCell id="BwmPzmblsaP-TvDC1Gwi-29" value="ContentBlockPayload" style="whiteSpace=wrap;html=1;shape=partialRectangle;top=0;left=0;bottom=1;right=0;points=[[0,1],[1,1]];fillColor=none;align=center;verticalAlign=bottom;routingCenterY=0.5;snapToPoint=1;recursiveResize=0;autosize=1;treeFolding=1;treeMoving=1;newEdgeStyle={&quot;edgeStyle&quot;:&quot;entityRelationEdgeStyle&quot;,&quot;startArrow&quot;:&quot;none&quot;,&quot;endArrow&quot;:&quot;none&quot;,&quot;segment&quot;:10,&quot;curved&quot;:1,&quot;sourcePerimeterSpacing&quot;:0,&quot;targetPerimeterSpacing&quot;:0};strokeColor=#00FF80;" vertex="1" parent="1">
          <mxGeometry x="-450" y="1310" width="160" height="30" as="geometry" />
        </mxCell>
        <mxCell id="BwmPzmblsaP-TvDC1Gwi-32" value="BunchHeader" style="whiteSpace=wrap;html=1;shape=partialRectangle;top=0;left=0;bottom=1;right=0;points=[[0,1],[1,1]];fillColor=none;align=center;verticalAlign=bottom;routingCenterY=0.5;snapToPoint=1;recursiveResize=0;autosize=1;treeFolding=1;treeMoving=1;newEdgeStyle={&quot;edgeStyle&quot;:&quot;entityRelationEdgeStyle&quot;,&quot;startArrow&quot;:&quot;none&quot;,&quot;endArrow&quot;:&quot;none&quot;,&quot;segment&quot;:10,&quot;curved&quot;:1,&quot;sourcePerimeterSpacing&quot;:0,&quot;targetPerimeterSpacing&quot;:0};strokeColor=#00FF80;" vertex="1" parent="1">
          <mxGeometry x="-640" y="1119.5" width="110" height="30" as="geometry" />
        </mxCell>
        <mxCell id="BwmPzmblsaP-TvDC1Gwi-33" value="BunchBody" style="whiteSpace=wrap;html=1;shape=partialRectangle;top=0;left=0;bottom=1;right=0;points=[[0,1],[1,1]];fillColor=none;align=center;verticalAlign=bottom;routingCenterY=0.5;snapToPoint=1;recursiveResize=0;autosize=1;treeFolding=1;treeMoving=1;newEdgeStyle={&quot;edgeStyle&quot;:&quot;entityRelationEdgeStyle&quot;,&quot;startArrow&quot;:&quot;none&quot;,&quot;endArrow&quot;:&quot;none&quot;,&quot;segment&quot;:10,&quot;curved&quot;:1,&quot;sourcePerimeterSpacing&quot;:0,&quot;targetPerimeterSpacing&quot;:0};strokeColor=#00FF80;" vertex="1" parent="1">
          <mxGeometry x="-635" y="1158.5" width="100" height="30" as="geometry" />
        </mxCell>
        <mxCell id="BwmPzmblsaP-TvDC1Gwi-34" value="Connect" style="whiteSpace=wrap;html=1;shape=partialRectangle;top=0;left=0;bottom=1;right=0;points=[[0,1],[1,1]];fillColor=none;align=center;verticalAlign=bottom;routingCenterY=0.5;snapToPoint=1;recursiveResize=0;autosize=1;treeFolding=1;treeMoving=1;newEdgeStyle={&quot;edgeStyle&quot;:&quot;entityRelationEdgeStyle&quot;,&quot;startArrow&quot;:&quot;none&quot;,&quot;endArrow&quot;:&quot;none&quot;,&quot;segment&quot;:10,&quot;curved&quot;:1,&quot;sourcePerimeterSpacing&quot;:0,&quot;targetPerimeterSpacing&quot;:0};strokeColor=#00FF80;" vertex="1" parent="1">
          <mxGeometry x="-940" y="920" width="90" height="30" as="geometry" />
        </mxCell>
        <mxCell id="BwmPzmblsaP-TvDC1Gwi-35" value="VoiceChannel" style="whiteSpace=wrap;html=1;shape=partialRectangle;top=0;left=0;bottom=1;right=0;points=[[0,1],[1,1]];fillColor=none;align=center;verticalAlign=bottom;routingCenterY=0.5;snapToPoint=1;recursiveResize=0;autosize=1;treeFolding=1;treeMoving=1;newEdgeStyle={&quot;edgeStyle&quot;:&quot;entityRelationEdgeStyle&quot;,&quot;startArrow&quot;:&quot;none&quot;,&quot;endArrow&quot;:&quot;none&quot;,&quot;segment&quot;:10,&quot;curved&quot;:1,&quot;sourcePerimeterSpacing&quot;:0,&quot;targetPerimeterSpacing&quot;:0};strokeColor=#00FF80;" vertex="1" parent="1">
          <mxGeometry x="-800" y="910" width="110" height="30" as="geometry" />
        </mxCell>
        <mxCell id="BwmPzmblsaP-TvDC1Gwi-36" value="ActorChannel 1" style="whiteSpace=wrap;html=1;shape=partialRectangle;top=0;left=0;bottom=1;right=0;points=[[0,1],[1,1]];fillColor=none;align=center;verticalAlign=bottom;routingCenterY=0.5;snapToPoint=1;recursiveResize=0;autosize=1;treeFolding=1;treeMoving=1;newEdgeStyle={&quot;edgeStyle&quot;:&quot;entityRelationEdgeStyle&quot;,&quot;startArrow&quot;:&quot;none&quot;,&quot;endArrow&quot;:&quot;none&quot;,&quot;segment&quot;:10,&quot;curved&quot;:1,&quot;sourcePerimeterSpacing&quot;:0,&quot;targetPerimeterSpacing&quot;:0};strokeColor=#00FF80;" vertex="1" parent="1">
          <mxGeometry x="-805" y="950" width="120" height="30" as="geometry" />
        </mxCell>
        <mxCell id="BwmPzmblsaP-TvDC1Gwi-37" value="ActorChannel n" style="whiteSpace=wrap;html=1;shape=partialRectangle;top=0;left=0;bottom=1;right=0;points=[[0,1],[1,1]];fillColor=none;align=center;verticalAlign=bottom;routingCenterY=0.5;snapToPoint=1;recursiveResize=0;autosize=1;treeFolding=1;treeMoving=1;newEdgeStyle={&quot;edgeStyle&quot;:&quot;entityRelationEdgeStyle&quot;,&quot;startArrow&quot;:&quot;none&quot;,&quot;endArrow&quot;:&quot;none&quot;,&quot;segment&quot;:10,&quot;curved&quot;:1,&quot;sourcePerimeterSpacing&quot;:0,&quot;targetPerimeterSpacing&quot;:0};strokeColor=#00FF80;" vertex="1" parent="1">
          <mxGeometry x="-810" y="1000" width="120" height="30" as="geometry" />
        </mxCell>
        <mxCell id="BwmPzmblsaP-TvDC1Gwi-38" value="OutBunch" style="whiteSpace=wrap;html=1;shape=partialRectangle;top=0;left=0;bottom=1;right=0;points=[[0,1],[1,1]];fillColor=none;align=center;verticalAlign=bottom;routingCenterY=0.5;snapToPoint=1;recursiveResize=0;autosize=1;treeFolding=1;treeMoving=1;newEdgeStyle={&quot;edgeStyle&quot;:&quot;entityRelationEdgeStyle&quot;,&quot;startArrow&quot;:&quot;none&quot;,&quot;endArrow&quot;:&quot;none&quot;,&quot;segment&quot;:10,&quot;curved&quot;:1,&quot;sourcePerimeterSpacing&quot;:0,&quot;targetPerimeterSpacing&quot;:0};strokeColor=#00FF80;" vertex="1" parent="1">
          <mxGeometry x="-750" y="1210" width="90" height="30" as="geometry" />
        </mxCell>
        <mxCell id="BwmPzmblsaP-TvDC1Gwi-39" value="InBunch" style="whiteSpace=wrap;html=1;shape=partialRectangle;top=0;left=0;bottom=1;right=0;points=[[0,1],[1,1]];fillColor=none;align=center;verticalAlign=bottom;routingCenterY=0.5;snapToPoint=1;recursiveResize=0;autosize=1;treeFolding=1;treeMoving=1;newEdgeStyle={&quot;edgeStyle&quot;:&quot;entityRelationEdgeStyle&quot;,&quot;startArrow&quot;:&quot;none&quot;,&quot;endArrow&quot;:&quot;none&quot;,&quot;segment&quot;:10,&quot;curved&quot;:1,&quot;sourcePerimeterSpacing&quot;:0,&quot;targetPerimeterSpacing&quot;:0};strokeColor=#00FF80;" vertex="1" parent="1">
          <mxGeometry x="-745" y="1260" width="80" height="30" as="geometry" />
        </mxCell>
        <mxCell id="BwmPzmblsaP-TvDC1Gwi-41" value="ExportGUIDBunch" style="whiteSpace=wrap;html=1;shape=partialRectangle;top=0;left=0;bottom=1;right=0;points=[[0,1],[1,1]];fillColor=none;align=center;verticalAlign=bottom;routingCenterY=0.5;snapToPoint=1;recursiveResize=0;autosize=1;treeFolding=1;treeMoving=1;newEdgeStyle={&quot;edgeStyle&quot;:&quot;entityRelationEdgeStyle&quot;,&quot;startArrow&quot;:&quot;none&quot;,&quot;endArrow&quot;:&quot;none&quot;,&quot;segment&quot;:10,&quot;curved&quot;:1,&quot;sourcePerimeterSpacing&quot;:0,&quot;targetPerimeterSpacing&quot;:0};strokeColor=#00FF80;" vertex="1" parent="1">
          <mxGeometry x="-780" y="1320" width="140" height="30" as="geometry" />
        </mxCell>
        <mxCell id="BwmPzmblsaP-TvDC1Gwi-42" value="handshake" style="whiteSpace=wrap;html=1;shape=partialRectangle;top=0;left=0;bottom=1;right=0;points=[[0,1],[1,1]];fillColor=none;align=center;verticalAlign=bottom;routingCenterY=0.5;snapToPoint=1;recursiveResize=0;autosize=1;treeFolding=1;treeMoving=1;newEdgeStyle={&quot;edgeStyle&quot;:&quot;entityRelationEdgeStyle&quot;,&quot;startArrow&quot;:&quot;none&quot;,&quot;endArrow&quot;:&quot;none&quot;,&quot;segment&quot;:10,&quot;curved&quot;:1,&quot;sourcePerimeterSpacing&quot;:0,&quot;targetPerimeterSpacing&quot;:0};strokeColor=#00FF80;" vertex="1" parent="1">
          <mxGeometry x="-935" y="750" width="100" height="30" as="geometry" />
        </mxCell>
        <mxCell id="BwmPzmblsaP-TvDC1Gwi-43" value="FastArray" style="whiteSpace=wrap;html=1;shape=partialRectangle;top=0;left=0;bottom=1;right=0;points=[[0,1],[1,1]];fillColor=none;align=center;verticalAlign=bottom;routingCenterY=0.5;snapToPoint=1;recursiveResize=0;autosize=1;treeFolding=1;treeMoving=1;newEdgeStyle={&quot;edgeStyle&quot;:&quot;entityRelationEdgeStyle&quot;,&quot;startArrow&quot;:&quot;none&quot;,&quot;endArrow&quot;:&quot;none&quot;,&quot;segment&quot;:10,&quot;curved&quot;:1,&quot;sourcePerimeterSpacing&quot;:0,&quot;targetPerimeterSpacing&quot;:0};strokeColor=#00FF80;" vertex="1" parent="1">
          <mxGeometry x="45" y="1158.5" width="90" height="30" as="geometry" />
        </mxCell>
        <mxCell id="BwmPzmblsaP-TvDC1Gwi-44" value="SparseArray" style="whiteSpace=wrap;html=1;shape=partialRectangle;top=0;left=0;bottom=1;right=0;points=[[0,1],[1,1]];fillColor=none;align=center;verticalAlign=bottom;routingCenterY=0.5;snapToPoint=1;recursiveResize=0;autosize=1;treeFolding=1;treeMoving=1;newEdgeStyle={&quot;edgeStyle&quot;:&quot;entityRelationEdgeStyle&quot;,&quot;startArrow&quot;:&quot;none&quot;,&quot;endArrow&quot;:&quot;none&quot;,&quot;segment&quot;:10,&quot;curved&quot;:1,&quot;sourcePerimeterSpacing&quot;:0,&quot;targetPerimeterSpacing&quot;:0};strokeColor=#00FF80;" vertex="1" parent="1">
          <mxGeometry x="160" y="1158.5" width="110" height="30" as="geometry" />
        </mxCell>
      </root>
    </mxGraphModel>
  </diagram>
  <diagram id="5O2spN0b5VGUqy2E1eZC" name="第 2 页">
    <mxGraphModel dx="2012" dy="-1650" grid="1" gridSize="10" guides="1" tooltips="1" connect="1" arrows="1" fold="1" page="1" pageScale="1" pageWidth="827" pageHeight="1169" math="0" shadow="0">
      <root>
        <mxCell id="0" />
        <mxCell id="1" parent="0" />
        <mxCell id="TetkY0A_Z-xyDz1SVkBg-1" value="1bit" style="rounded=0;whiteSpace=wrap;html=1;fillColor=#dae8fc;strokeColor=#6c8ebf;" vertex="1" parent="1">
          <mxGeometry x="-560" y="2953" width="106" height="30" as="geometry" />
        </mxCell>
        <mxCell id="TetkY0A_Z-xyDz1SVkBg-2" value="1bit" style="rounded=0;whiteSpace=wrap;html=1;fillColor=#b1ddf0;strokeColor=#10739e;" vertex="1" parent="1">
          <mxGeometry x="-454" y="2953" width="70" height="30" as="geometry" />
        </mxCell>
        <mxCell id="TetkY0A_Z-xyDz1SVkBg-3" value="唯一一个Actor. 我们暂时命名其为Actor1" style="rounded=0;whiteSpace=wrap;html=1;fillColor=#dae8fc;strokeColor=#6c8ebf;" vertex="1" parent="1">
          <mxGeometry x="-627" y="3260" width="240" height="30" as="geometry" />
        </mxCell>
        <mxCell id="TetkY0A_Z-xyDz1SVkBg-4" value="无数个SubObj, 并且这些SubObj满足以下条件:" style="rounded=0;whiteSpace=wrap;html=1;fillColor=#b1ddf0;strokeColor=#10739e;align=left;" vertex="1" parent="1">
          <mxGeometry x="-627" y="3340" width="257" height="30" as="geometry" />
        </mxCell>
        <mxCell id="TetkY0A_Z-xyDz1SVkBg-5" value="" style="rounded=0;whiteSpace=wrap;html=1;fillColor=#f8cecc;strokeColor=#b85450;" vertex="1" parent="1">
          <mxGeometry x="-384" y="2953" width="70" height="30" as="geometry" />
        </mxCell>
        <mxCell id="TetkY0A_Z-xyDz1SVkBg-6" value="Obj" style="rounded=0;whiteSpace=wrap;html=1;fillColor=#f8cecc;strokeColor=#b85450;" vertex="1" parent="1">
          <mxGeometry x="-384" y="2923" width="70" height="30" as="geometry" />
        </mxCell>
        <mxCell id="TetkY0A_Z-xyDz1SVkBg-7" value="ActorChannel" style="text;strokeColor=#82b366;fillColor=#d5e8d4;align=center;verticalAlign=middle;spacingLeft=4;spacingRight=4;overflow=hidden;rotatable=0;points=[[0,0.5],[1,0.5]];portConstraint=eastwest;whiteSpace=wrap;html=1;" vertex="1" parent="1">
          <mxGeometry x="-724" y="3210" width="140" height="30" as="geometry" />
        </mxCell>
        <mxCell id="TetkY0A_Z-xyDz1SVkBg-8" value="" style="endArrow=classic;html=1;rounded=0;" edge="1" parent="1">
          <mxGeometry width="50" height="50" relative="1" as="geometry">
            <mxPoint x="-650" y="3240" as="sourcePoint" />
            <mxPoint x="-650" y="3560" as="targetPoint" />
          </mxGeometry>
        </mxCell>
        <mxCell id="TetkY0A_Z-xyDz1SVkBg-9" value="" style="endArrow=classic;html=1;rounded=0;entryX=0;entryY=0.5;entryDx=0;entryDy=0;" edge="1" parent="1" target="TetkY0A_Z-xyDz1SVkBg-3">
          <mxGeometry width="50" height="50" relative="1" as="geometry">
            <mxPoint x="-650" y="3275" as="sourcePoint" />
            <mxPoint x="-640" y="3270" as="targetPoint" />
          </mxGeometry>
        </mxCell>
        <mxCell id="TetkY0A_Z-xyDz1SVkBg-11" value="" style="endArrow=classic;html=1;rounded=0;entryX=0;entryY=0.5;entryDx=0;entryDy=0;" edge="1" parent="1" target="TetkY0A_Z-xyDz1SVkBg-4">
          <mxGeometry width="50" height="50" relative="1" as="geometry">
            <mxPoint x="-650" y="3355" as="sourcePoint" />
            <mxPoint x="-617" y="3285" as="targetPoint" />
          </mxGeometry>
        </mxCell>
        <mxCell id="TetkY0A_Z-xyDz1SVkBg-12" value="1.这些SubObj的类型一定不是Actor." style="rounded=0;whiteSpace=wrap;html=1;fillColor=#d5e8d4;strokeColor=#82b366;align=left;" vertex="1" parent="1">
          <mxGeometry x="-574" y="3390" width="204" height="30" as="geometry" />
        </mxCell>
        <mxCell id="TetkY0A_Z-xyDz1SVkBg-13" value="" style="endArrow=classic;html=1;rounded=0;entryX=0;entryY=0.5;entryDx=0;entryDy=0;" edge="1" parent="1" target="TetkY0A_Z-xyDz1SVkBg-12">
          <mxGeometry width="50" height="50" relative="1" as="geometry">
            <mxPoint x="-610" y="3405" as="sourcePoint" />
            <mxPoint x="-571" y="3365" as="targetPoint" />
          </mxGeometry>
        </mxCell>
        <mxCell id="TetkY0A_Z-xyDz1SVkBg-14" value="2.这些SubObj的Outer链中, Actor1一定在其中." style="rounded=0;whiteSpace=wrap;html=1;fillColor=#d5e8d4;strokeColor=#82b366;align=left;" vertex="1" parent="1">
          <mxGeometry x="-574" y="3440" width="254" height="30" as="geometry" />
        </mxCell>
        <mxCell id="TetkY0A_Z-xyDz1SVkBg-15" value="" style="endArrow=classic;html=1;rounded=0;entryX=0;entryY=0.5;entryDx=0;entryDy=0;" edge="1" parent="1" target="TetkY0A_Z-xyDz1SVkBg-14">
          <mxGeometry width="50" height="50" relative="1" as="geometry">
            <mxPoint x="-610" y="3455" as="sourcePoint" />
            <mxPoint x="-558" y="3415" as="targetPoint" />
          </mxGeometry>
        </mxCell>
        <mxCell id="TetkY0A_Z-xyDz1SVkBg-16" value="3.每个SubObj唯一对应一个FObjectReplicator(仅在Server端, Client不需要复制)" style="rounded=0;whiteSpace=wrap;html=1;fillColor=#d5e8d4;strokeColor=#82b366;align=left;" vertex="1" parent="1">
          <mxGeometry x="-574" y="3490" width="424" height="30" as="geometry" />
        </mxCell>
        <mxCell id="TetkY0A_Z-xyDz1SVkBg-17" value="" style="endArrow=classic;html=1;rounded=0;exitX=0.065;exitY=1.027;exitDx=0;exitDy=0;exitPerimeter=0;edgeStyle=orthogonalEdgeStyle;" edge="1" parent="1" source="TetkY0A_Z-xyDz1SVkBg-4">
          <mxGeometry width="50" height="50" relative="1" as="geometry">
            <mxPoint x="-594" y="3415" as="sourcePoint" />
            <mxPoint x="-610" y="3550" as="targetPoint" />
          </mxGeometry>
        </mxCell>
        <mxCell id="TetkY0A_Z-xyDz1SVkBg-18" value="" style="endArrow=classic;html=1;rounded=0;entryX=0;entryY=0.5;entryDx=0;entryDy=0;" edge="1" parent="1" target="TetkY0A_Z-xyDz1SVkBg-16">
          <mxGeometry width="50" height="50" relative="1" as="geometry">
            <mxPoint x="-610" y="3505" as="sourcePoint" />
            <mxPoint x="-568" y="3504.83" as="targetPoint" />
          </mxGeometry>
        </mxCell>
      </root>
    </mxGraphModel>
  </diagram>
</mxfile>
